<svg width="23" height="25" viewBox="0 0 23 25" fill="none" xmlns="http://www.w3.org/2000/svg">
<g clip-path="url(#clip0_1_881)">
<path d="M20.3189 24.9996C14.4443 24.9996 8.56962 24.9996 2.69028 24.9996C2.67147 24.9852 2.65265 24.966 2.63384 24.9612C1.31686 24.8029 -0.00481303 23.58 -0.000109554 21.6953C0.0234078 16.0796 0.0092974 10.4638 0.0092974 4.85281C0.0092974 2.90576 1.32157 1.56776 3.22177 1.56296C4.10603 1.56296 4.99498 1.56296 5.87924 1.56296C5.9639 1.56296 6.04856 1.56296 6.13793 1.56296C6.13793 1.31358 6.13793 1.10257 6.13793 0.891561C6.14263 0.349647 6.45306 -0.00523531 6.914 -0.000439611C7.36553 0.00435609 7.67126 0.359238 7.67126 0.88197C7.67126 1.10737 7.67126 1.32797 7.67126 1.54857C10.2441 1.54857 12.7792 1.54857 15.3332 1.54857C15.3332 1.2992 15.3285 1.069 15.3332 0.834013C15.3379 0.349647 15.6578 0.00435609 16.0905 -0.000439611C16.5373 -0.00523531 16.8572 0.344851 16.8619 0.838809C16.8666 1.0738 16.8619 1.30399 16.8619 1.55816C16.9747 1.55816 17.0594 1.55816 17.1488 1.55816C18.0424 1.55816 18.9361 1.55337 19.8297 1.56296C20.0837 1.56776 20.3424 1.58214 20.587 1.63969C22.0451 1.98019 22.9905 3.21268 22.9905 4.77608C22.9905 8.81406 22.9905 12.8473 22.9905 16.8852C22.9905 18.535 22.9952 20.1895 22.9905 21.8392C22.9858 23.2299 22.1674 24.3953 20.9021 24.8317C20.7187 24.8989 20.5165 24.942 20.3189 24.9996ZM1.54263 7.82135C1.54263 7.92686 1.54263 8.01318 1.54263 8.1043C1.54263 12.6314 1.54263 17.1538 1.54263 21.6809C1.54263 22.8031 2.15879 23.441 3.2594 23.441C8.75776 23.441 14.2608 23.441 19.7592 23.441C20.8457 23.441 21.4666 22.8079 21.4666 21.7001C21.4666 17.1682 21.4666 12.6362 21.4666 8.0995C21.4666 8.01318 21.4666 7.92686 21.4666 7.82615C14.8205 7.82135 8.19805 7.82135 1.54263 7.82135ZM1.55204 6.23398C8.20275 6.23398 14.83 6.23398 21.4713 6.23398C21.4713 5.72084 21.476 5.22688 21.4713 4.73292C21.4572 3.79776 20.8175 3.13595 19.8956 3.12636C18.9314 3.11677 17.9625 3.12636 16.9983 3.12636C16.9606 3.12636 16.923 3.13595 16.8713 3.14554C16.8713 3.38533 16.8713 3.61073 16.8713 3.83612C16.8666 4.33488 16.5514 4.68496 16.1093 4.68496C15.6672 4.68496 15.3473 4.33488 15.3426 3.84092C15.3379 3.60593 15.3426 3.37574 15.3426 3.14554C12.7698 3.14554 10.23 3.14554 7.68067 3.14554C7.68067 3.39012 7.68067 3.61552 7.68067 3.84571C7.67596 4.34447 7.35613 4.69455 6.914 4.68976C6.47187 4.68976 6.15674 4.33967 6.15204 3.83612C6.15204 3.60593 6.15204 3.37094 6.15204 3.13595C5.07494 3.13595 4.03077 3.11197 2.9866 3.14554C2.21052 3.16952 1.62259 3.77857 1.57085 4.56507C1.51911 5.11178 1.55204 5.66329 1.55204 6.23398Z" fill="#AAAAAA"/>
<path d="M7.67132 13.2791C7.67132 13.5333 7.67603 13.7827 7.67132 14.0369C7.6478 14.948 7.01754 15.6003 6.12388 15.6194C5.62061 15.629 5.11733 15.629 4.61877 15.6194C3.72981 15.6003 3.09484 14.9432 3.07602 14.0321C3.06662 13.5285 3.06662 13.025 3.07602 12.5214C3.09484 11.6006 3.73921 10.9532 4.64228 10.9388C5.12674 10.9292 5.6159 10.9292 6.10036 10.9388C7.01754 10.9532 7.65251 11.6102 7.66662 12.5502C7.67602 12.7948 7.67132 13.0346 7.67132 13.2791ZM6.12388 14.056C6.12388 13.5285 6.12388 13.0202 6.12388 12.5166C5.6112 12.5166 5.11263 12.5166 4.62347 12.5166C4.62347 13.0394 4.62347 13.5477 4.62347 14.056C5.13144 14.056 5.6159 14.056 6.12388 14.056Z" fill="#AAAAAA"/>
<path d="M11.5 15.6246C11.246 15.6246 10.9873 15.6342 10.7333 15.6246C9.86786 15.5958 9.2329 14.958 9.20467 14.0708C9.19056 13.5433 9.19056 13.0157 9.20467 12.4834C9.2329 11.6106 9.85846 10.968 10.7145 10.9392C11.2413 10.92 11.7681 10.92 12.2949 10.9392C13.1509 10.968 13.7717 11.6154 13.8 12.4882C13.8141 13.0157 13.8141 13.5433 13.8 14.0756C13.7717 14.958 13.1368 15.5958 12.2666 15.6198C12.0126 15.6294 11.7587 15.6246 11.5 15.6246ZM10.7521 12.5026C10.7521 13.0301 10.7521 13.5385 10.7521 14.042C11.2648 14.042 11.7587 14.042 12.2525 14.042C12.2525 13.5193 12.2525 13.0109 12.2525 12.5026C11.7493 12.5026 11.2601 12.5026 10.7521 12.5026Z" fill="#AAAAAA"/>
<path d="M19.9333 13.3035C19.9333 13.5481 19.938 13.7927 19.9333 14.0373C19.9098 14.9484 19.2796 15.6007 18.3906 15.6198C17.8873 15.6294 17.3841 15.6294 16.8855 15.6198C15.9965 15.6007 15.3616 14.9436 15.3427 14.0325C15.3333 13.5289 15.3333 13.0254 15.3427 12.5218C15.3616 11.601 16.0059 10.9536 16.909 10.9344C17.3935 10.9248 17.8826 10.9248 18.3671 10.9344C19.2843 10.9488 19.9192 11.6058 19.9333 12.5458C19.938 12.8 19.9333 13.0541 19.9333 13.3035ZM18.3812 14.0564C18.3812 13.5433 18.3812 13.0302 18.3812 12.517C17.8779 12.517 17.3794 12.517 16.8855 12.517C16.8855 13.0398 16.8855 13.5481 16.8855 14.0564C17.3888 14.0564 17.8779 14.0564 18.3812 14.0564Z" fill="#AAAAAA"/>
<path d="M7.67138 19.5282C7.67138 19.7824 7.67608 20.0318 7.67138 20.286C7.65257 21.1972 7.0176 21.8494 6.12864 21.8733C5.62537 21.8829 5.12209 21.8829 4.62353 21.8733C3.73457 21.8542 3.0949 21.2019 3.08079 20.2908C3.07138 19.7872 3.07138 19.2837 3.08079 18.7801C3.0996 17.8593 3.73927 17.2071 4.64704 17.1927C5.1315 17.1831 5.62066 17.1831 6.10512 17.1927C7.0223 17.2071 7.65727 17.8641 7.67608 18.8041C7.67608 19.0439 7.67138 19.2837 7.67138 19.5282ZM4.62353 18.7609C4.62353 19.2933 4.62353 19.7968 4.62353 20.3004C5.1315 20.3004 5.62537 20.3004 6.12393 20.3004C6.12393 19.7824 6.12393 19.2741 6.12393 18.7609C5.62066 18.7609 5.1268 18.7609 4.62353 18.7609Z" fill="#AAAAAA"/>
<path d="M11.5047 21.8733C11.2555 21.8733 11.0109 21.8781 10.7616 21.8733C9.86793 21.8494 9.22826 21.2067 9.20945 20.3004C9.20004 19.7872 9.20004 19.2741 9.20945 18.7657C9.22826 17.8593 9.87264 17.2119 10.7663 17.1927C11.2602 17.1831 11.754 17.1831 12.2479 17.1927C13.151 17.2119 13.7859 17.8689 13.8047 18.7897C13.8142 19.2837 13.8142 19.7824 13.8047 20.2764C13.7906 21.2115 13.1463 21.859 12.2244 21.8733C11.9845 21.8781 11.7446 21.8733 11.5047 21.8733ZM12.2573 18.7609C11.7399 18.7609 11.2461 18.7609 10.7522 18.7609C10.7522 19.2789 10.7522 19.7872 10.7522 20.2908C11.2649 20.2908 11.7634 20.2908 12.2573 20.2908C12.2573 19.7776 12.2573 19.2741 12.2573 18.7609Z" fill="#AAAAAA"/>
<path d="M19.9333 19.5185C19.9333 19.7726 19.938 20.022 19.9333 20.2762C19.9145 21.2018 19.2795 21.854 18.3764 21.8732C17.8826 21.8828 17.3887 21.8828 16.8948 21.8732C15.9918 21.854 15.3568 21.197 15.338 20.2762C15.3286 19.7822 15.3286 19.2835 15.338 18.7895C15.3521 17.8544 16.0012 17.2022 16.9184 17.1926C17.3981 17.1878 17.8779 17.1878 18.3529 17.1926C19.2795 17.2069 19.9192 17.864 19.9333 18.8183C19.938 19.0485 19.9333 19.2835 19.9333 19.5185ZM18.3811 20.305C18.3811 19.7726 18.3811 19.2643 18.3811 18.7656C17.8732 18.7656 17.3793 18.7656 16.8807 18.7656C16.8807 19.2835 16.8807 19.7918 16.8807 20.305C17.3887 20.305 17.8826 20.305 18.3811 20.305Z" fill="#AAAAAA"/>
</g>
<defs>
<clipPath id="clip0_1_881">
<rect width="23" height="25" fill="white"/>
</clipPath>
</defs>
</svg>
