<svg width="30" height="30" viewBox="0 0 30 30" fill="none" xmlns="http://www.w3.org/2000/svg">
<circle cx="15" cy="15" r="15" fill="#00A3FF"/>
<path d="M16.325 6C15.0984 6 13.922 6.48728 13.0546 7.35463C12.1873 8.22199 11.7 9.39837 11.7 10.625V13.2H9.225C9.10074 13.2 9 13.3007 9 13.425V16.825C9 16.9493 9.10074 17.05 9.225 17.05H11.7V24.025C11.7 24.1493 11.8007 24.25 11.925 24.25H15.325C15.4493 24.25 15.55 24.1493 15.55 24.025V17.05H18.0469C18.1502 17.05 18.2402 16.9797 18.2652 16.8796L19.1152 13.4796C19.1507 13.3376 19.0433 13.2 18.8969 13.2H15.55V10.625C15.55 10.4195 15.6317 10.2223 15.777 10.077C15.9223 9.93165 16.1195 9.85 16.325 9.85H18.925C19.0493 9.85 19.15 9.74926 19.15 9.625V6.225C19.15 6.10074 19.0493 6 18.925 6H16.325Z" fill="#F5F5F5"/>
</svg>
