<svg width="30" height="30" viewBox="0 0 30 30" fill="none" xmlns="http://www.w3.org/2000/svg">
<circle cx="15" cy="15" r="15" fill="#00A3FF"/>
<path fill-rule="evenodd" clip-rule="evenodd" d="M19.5674 21.1353L19.568 21.1339L19.582 21.0989L22 8.90787V8.86827C22 8.56452 21.8878 8.29936 21.6435 8.1403C21.4298 8.00108 21.184 7.99116 21.0117 8.00424C20.8295 8.01807 20.6576 8.06356 20.5387 8.10143C20.4775 8.12091 20.4262 8.13968 20.3896 8.15388C20.3712 8.161 20.3563 8.16705 20.3455 8.17155L20.3348 8.17603L6.85313 13.4647L6.84942 13.466C6.84214 13.4687 6.83251 13.4723 6.82088 13.4768C6.79769 13.4858 6.76613 13.4987 6.72906 13.5156C6.65626 13.5485 6.55568 13.5995 6.45368 13.6693C6.28044 13.7879 5.95055 14.0688 6.00626 14.5141C6.0524 14.8829 6.30663 15.1171 6.47804 15.2384C6.56992 15.3034 6.65782 15.3503 6.72218 15.381C6.7548 15.3965 6.7825 15.4084 6.80313 15.4168C6.81348 15.421 6.82213 15.4244 6.82882 15.4269L6.83739 15.4301L6.84286 15.4321L9.20158 16.2262C9.19362 16.3742 9.20829 16.5251 9.24754 16.674L10.429 21.1559C10.5691 21.6873 11.0499 22.0575 11.5995 22.0571C12.0921 22.0567 12.529 21.7587 12.7146 21.3141L14.5592 19.3417L17.7273 21.7706L17.7723 21.7902C18.0601 21.9159 18.3291 21.9556 18.5749 21.9221C18.8205 21.8885 19.0156 21.7856 19.1621 21.6683C19.3063 21.5529 19.4052 21.4227 19.4673 21.3247C19.4989 21.2749 19.5225 21.2311 19.5388 21.1981C19.547 21.1816 19.5535 21.1676 19.5583 21.1567L19.5644 21.1426L19.5665 21.1374L19.5674 21.1353ZM10.417 16.3657C10.3902 16.2638 10.4323 16.1563 10.5213 16.0998L18.5217 11.0192C18.5217 11.0192 18.9923 10.7335 18.9755 11.0192C18.9755 11.0192 19.0594 11.0696 18.8073 11.3048C18.5681 11.5283 13.1052 16.8025 12.5524 17.3362C12.5205 17.367 12.5014 17.4024 12.4902 17.4453L11.5985 20.8476L10.417 16.3657Z" fill="#F5F5F5"/>
</svg>
