<svg width="30" height="30" viewBox="0 0 30 30" fill="none" xmlns="http://www.w3.org/2000/svg">
<circle cx="15" cy="15" r="15" fill="#00A3FF"/>
<path d="M23.77 20.9986H21.7433C20.9765 20.9986 20.7459 20.3777 19.3706 19.0024C18.1704 17.8452 17.6633 17.7008 17.3591 17.7008C16.9396 17.7008 16.8243 17.8161 16.8243 18.3953V20.2179C16.8243 20.7111 16.6645 21 15.3768 21C14.127 20.916 12.9151 20.5363 11.8408 19.8922C10.7666 19.2481 9.86069 18.3579 9.19783 17.2951C7.62415 15.3364 6.52919 13.0376 6 10.5814C6 10.2771 6.1153 10.0021 6.69458 10.0021H8.71996C9.24089 10.0021 9.42843 10.2341 9.63263 10.7689C10.6162 13.6639 12.2942 16.181 12.9749 16.181C13.2361 16.181 13.35 16.0657 13.35 15.4142V12.4331C13.2639 11.0731 12.5415 10.9578 12.5415 10.4661C12.5508 10.3363 12.6102 10.2154 12.7072 10.1287C12.8042 10.0421 12.9311 9.99669 13.0611 10.0021H16.245C16.6798 10.0021 16.8243 10.2188 16.8243 10.7397V14.7627C16.8243 15.1975 17.0118 15.342 17.1424 15.342C17.4036 15.342 17.605 15.1975 18.0828 14.7196C19.1092 13.4679 19.9478 12.0734 20.5722 10.58C20.636 10.4006 20.7568 10.247 20.9161 10.1427C21.0753 10.0383 21.2644 9.98894 21.4543 10.0021H23.4811C24.0882 10.0021 24.2173 10.3063 24.0882 10.7397C23.3512 12.3906 22.4393 13.9578 21.3682 15.4142C21.1501 15.7476 21.0626 15.9213 21.3682 16.3116C21.5696 16.6158 22.2795 17.209 22.7573 17.773C23.4518 18.4657 24.0285 19.2671 24.4646 20.1457C24.6383 20.7097 24.3479 20.9986 23.77 20.9986Z" fill="#F5F5F5"/>
</svg>
