<svg width="30" height="30" viewBox="0 0 30 30" fill="none" xmlns="http://www.w3.org/2000/svg">
<circle cx="15" cy="15" r="15" fill="#00A3FF"/>
<path fill-rule="evenodd" clip-rule="evenodd" d="M11.0364 9.15481C13.6748 8.9484 16.3252 8.9484 18.9636 9.15481L20.7359 9.29346C21.723 9.3707 22.5306 10.1105 22.6938 11.0872C23.1021 13.5308 23.1021 16.0253 22.6938 18.4689C22.5306 19.4456 21.723 20.1854 20.7359 20.2627L18.9636 20.4013C16.3252 20.6077 13.6748 20.6077 11.0364 20.4013L9.26415 20.2627C8.27698 20.1854 7.4694 19.4456 7.30622 18.4689C6.89793 16.0253 6.89793 13.5308 7.30622 11.0872C7.4694 10.1105 8.27698 9.3707 9.26415 9.29346L11.0364 9.15481ZM13.4181 16.7318V12.8243C13.4181 12.6399 13.6193 12.5259 13.7774 12.6208L17.0337 14.5746C17.1873 14.6668 17.1873 14.8894 17.0337 14.9815L13.7774 16.9353C13.6193 17.0302 13.4181 16.9163 13.4181 16.7318Z" fill="#F5F5F5"/>
</svg>
