<svg width="16" height="27" viewBox="0 0 16 27" fill="none" xmlns="http://www.w3.org/2000/svg">
<path d="M5.38786 26.993C4.80478 26.6479 4.71945 26.4366 4.8901 25.7534C5.65095 22.7672 6.4118 19.781 7.17265 16.8018C7.17976 16.7666 7.18687 16.7314 7.2082 16.661C7.09443 16.661 6.99488 16.661 6.88822 16.661C4.8901 16.661 2.89199 16.661 0.886761 16.661C0.431675 16.661 0.125913 16.4427 0.0263629 16.0623C-0.0518552 15.7806 0.0548058 15.5482 0.204131 15.3228C1.6405 13.0761 3.06265 10.8365 4.4919 8.5898C6.2127 5.88532 7.9335 3.18083 9.65429 0.476351C9.86051 0.152376 10.1307 -0.0518684 10.536 0.0115179C11.0124 0.0819472 11.2898 0.525651 11.1689 1.01866C10.8062 2.47654 10.4294 3.92738 10.0596 5.38527C9.65429 6.98401 9.24187 8.58276 8.83656 10.1815C8.82945 10.2238 8.82234 10.266 8.80812 10.3294C8.91478 10.3294 9.01433 10.3294 9.10677 10.3294C11.0907 10.3294 13.0674 10.3294 15.0513 10.3294C15.414 10.3294 15.7198 10.421 15.9046 10.752C16.0824 11.076 15.99 11.3718 15.8051 11.6676C12.655 16.6046 9.51208 21.5488 6.36203 26.4859C6.23403 26.6901 5.99938 26.831 5.82161 27C5.67229 26.993 5.53007 26.993 5.38786 26.993ZM7.6704 21.3657C7.69173 21.3727 7.70595 21.3797 7.72729 21.3868C9.7254 18.2456 11.7306 15.0975 13.7572 11.9141C13.615 11.9141 13.5225 11.9141 13.423 11.9141C11.5742 11.9141 9.7254 11.9141 7.87661 11.9141C7.20109 11.9141 6.85267 11.4704 7.02332 10.8154C7.37886 9.41382 7.74151 8.01228 8.09704 6.60369C8.18237 6.27972 8.26059 5.9487 8.33881 5.62473C8.31748 5.61769 8.30326 5.61064 8.28192 5.6036C6.28381 8.75179 4.27858 11.8929 2.25202 15.0763C2.39424 15.0763 2.49379 15.0763 2.58623 15.0763C4.40657 15.0763 6.22692 15.0763 8.04727 15.0763C8.82945 15.0763 9.15654 15.4848 8.96455 16.2243C8.61613 17.6047 8.26059 18.9781 7.91217 20.3585C7.83395 20.6966 7.74862 21.0346 7.6704 21.3657Z" fill="white"/>
</svg>
