<svg width="22" height="17" viewBox="0 0 22 17" fill="none" xmlns="http://www.w3.org/2000/svg">
<path d="M16.0246 11.2958C16.5378 11.0331 17.0753 10.8621 17.6557 10.8376C19.5495 10.7643 21.3823 12.1694 21.8588 14.0755C21.9626 14.4848 21.981 14.9185 21.9993 15.3401C22.0176 15.7799 21.6755 16.1037 21.2601 16.0976C20.8447 16.0915 20.5209 15.7616 20.5453 15.3156C20.6064 13.9411 19.6717 12.7131 18.3705 12.371C17.784 12.2183 17.2403 12.3038 16.7393 12.5726C16.8676 13.1163 17.0204 13.6295 17.1181 14.161C17.1853 14.5337 17.2036 14.9185 17.2098 15.2973C17.222 15.7188 16.9104 16.0365 16.5133 16.0548C16.1101 16.067 15.7741 15.786 15.7558 15.3584C15.7252 14.662 15.6519 13.9777 15.4015 13.3179C14.8394 11.8151 13.8681 10.6849 12.3102 10.1656C10.5569 9.57917 8.6631 10.2206 7.4596 11.7601C6.73262 12.6948 6.34775 13.7639 6.27444 14.943C6.26833 15.0713 6.26833 15.1996 6.25611 15.334C6.21945 15.7738 5.90789 16.067 5.49858 16.0548C5.08927 16.0426 4.79603 15.7188 4.79603 15.279C4.79603 14.4481 4.93654 13.6417 5.21756 12.8598C5.24811 12.7742 5.27254 12.6887 5.3092 12.591C4.53945 12.1633 3.77581 12.2061 3.0305 12.6093C1.99195 13.1774 1.46656 14.0694 1.46656 15.2606C1.46656 15.7494 1.17943 16.0854 0.751796 16.0976C0.31194 16.1098 0.00648423 15.7738 0.000375113 15.2729C-0.0301705 12.9147 1.80867 10.9171 4.09348 10.8315C4.76548 10.8071 5.38861 10.9843 5.9812 11.2897C8.3943 7.55705 13.6665 7.62425 16.0246 11.2958Z" fill="white"/>
<path d="M10.9112 1.72982e-05C12.9272 0.00612641 14.5401 1.63726 14.5278 3.64716C14.5156 5.63262 12.8784 7.23321 10.8624 7.2271C8.89523 7.22099 7.27632 5.58986 7.28243 3.61661C7.29465 1.60671 8.91967 -0.00609182 10.9112 1.72982e-05ZM8.75472 3.60439C8.74861 4.78345 9.69553 5.7548 10.8685 5.76702C12.0781 5.77924 13.0555 4.82622 13.0616 3.62883C13.0678 2.44977 12.1086 1.47842 10.9418 1.4662C9.73829 1.45399 8.76694 2.40701 8.75472 3.60439Z" fill="white"/>
<path d="M6.84257 6.57921C6.84257 8.12482 5.5902 9.36497 4.03848 9.35275C2.51731 9.34664 1.27716 8.09427 1.27716 6.57921C1.28938 5.0275 2.52342 3.79346 4.07514 3.79346C5.60852 3.79957 6.84257 5.03972 6.84257 6.57921ZM5.37638 6.58532C5.38249 5.85834 4.80212 5.26575 4.08124 5.26575C3.34204 5.25354 2.75557 5.8339 2.74946 6.567C2.74335 7.30009 3.33593 7.89878 4.06903 7.89267C4.79601 7.88656 5.37638 7.3062 5.37638 6.58532Z" fill="white"/>
<path d="M17.8207 9.35331C16.3178 9.42051 15.0227 8.19258 14.9677 6.64697C14.9127 5.17468 16.1162 3.86122 17.5824 3.80013C19.1463 3.73293 20.4659 4.89977 20.5331 6.42704C20.6064 8.0032 19.4212 9.28611 17.8207 9.35331ZM17.7535 5.2602C17.0204 5.2602 16.4278 5.85279 16.4278 6.58588C16.4339 7.30676 17.0204 7.89323 17.7473 7.89323C18.4743 7.89323 19.073 7.30065 19.0669 6.56755C19.0669 5.84668 18.4743 5.2602 17.7535 5.2602Z" fill="white"/>
</svg>
