<svg width="18" height="18" viewBox="0 0 18 18" fill="none" xmlns="http://www.w3.org/2000/svg">
<path d="M9.77306 3.8648C9.77306 3.44149 9.42337 3.0918 9.00006 3.0918C8.57674 3.0918 8.22705 3.44149 8.22705 3.8648V9.01818C8.22705 9.27585 8.35589 9.53351 8.59515 9.68075L11.6872 11.5949C12.0553 11.8157 12.5338 11.7053 12.7547 11.3556C12.9755 10.9875 12.8651 10.509 12.5154 10.2881L9.79147 8.57646V3.8648H9.77306Z" fill="white"/>
<path fill-rule="evenodd" clip-rule="evenodd" d="M9 0C4.03067 0 0 4.03067 0 9C0 13.9693 4.03067 18 9 18C13.9693 18 18 13.9693 18 9C18.0184 4.03067 13.9693 0 9 0ZM1.54601 9C1.54601 4.8773 4.89571 1.54601 9 1.54601C13.1227 1.54601 16.454 4.89571 16.454 9C16.454 13.1227 13.1043 16.454 9 16.454C4.8773 16.4724 1.54601 13.1227 1.54601 9Z" fill="white"/>
</svg>
