<svg width="41" height="41" viewBox="0 0 41 41" fill="none" xmlns="http://www.w3.org/2000/svg">
<circle cx="20.5" cy="20.5" r="18.85" stroke="white" stroke-width="3.3"/>
<path d="M8.888 20.24C8.888 27.752 14.864 31.592 21.608 31.592C23.384 31.592 25.16 31.352 26.912 30.728V27.968C25.208 28.52 23.432 28.808 21.704 28.808C16.4 28.808 11.936 26.048 11.936 20.24C11.936 15.752 15.128 11.648 20.768 11.648C26.384 11.648 29.12 15.776 29.12 19.28C29.12 21.512 28.688 23.384 27.08 23.384C25.856 23.384 25.424 22.64 25.424 21.512V15.584H22.88V16.904C22.256 16.016 21.224 15.296 19.616 15.296C16.568 15.296 15.032 17.768 15.032 20.288C15.032 22.784 16.64 25.256 19.568 25.256C21.2 25.256 22.328 24.512 22.952 23.432C23.504 24.92 24.992 25.856 26.912 25.856C30.056 25.856 32.168 23.744 32.168 19.28C32.168 14.648 28.448 8.864 20.768 8.864C13.064 8.864 8.888 14.408 8.888 20.24ZM22.616 19.352V21.224C22.304 22.088 21.464 22.88 20.264 22.88C18.776 22.88 17.912 21.68 17.912 20.288C17.912 18.896 18.776 17.696 20.264 17.696C21.464 17.696 22.304 18.464 22.616 19.352Z" fill="white"/>
</svg>
