<svg width="41" height="41" viewBox="0 0 41 41" fill="none" xmlns="http://www.w3.org/2000/svg">
<circle cx="20.5" cy="20.5" r="18.85" stroke="white" stroke-width="3.3"/>
<path d="M27.9489 22.0459C27.732 22.0459 27.5053 21.9737 27.2884 21.9221C26.8492 21.8208 26.4176 21.6864 25.997 21.5198C25.5396 21.3456 25.0369 21.3547 24.5855 21.5451C24.1342 21.7356 23.7661 22.094 23.5521 22.5515L23.3352 23.0157C22.375 22.4567 21.4927 21.7624 20.7129 20.9523C19.9388 20.1363 19.2754 19.2129 18.7412 18.208L19.1553 17.9192C19.5924 17.6952 19.9349 17.31 20.1169 16.8376C20.2989 16.3653 20.3075 15.8392 20.1411 15.3606C19.9846 14.9194 19.8561 14.468 19.7566 14.0091C19.7074 13.7821 19.6679 13.5448 19.6383 13.3075C19.5186 12.5808 19.1549 11.9227 18.6127 11.4518C18.0705 10.9808 17.3854 10.7279 16.6809 10.7386H13.7234C13.2985 10.7344 12.8778 10.8261 12.4898 11.0074C12.1018 11.1887 11.7557 11.4553 11.4751 11.7892C11.1945 12.123 10.9858 12.5162 10.8635 12.942C10.7411 13.3678 10.7078 13.8162 10.7659 14.2567C11.2911 18.5788 13.1772 22.5947 16.1265 25.6699C19.0757 28.7451 22.9199 30.7044 27.0518 31.2383H27.4264C28.1534 31.2394 28.8553 30.9603 29.3981 30.4542C29.7099 30.1623 29.9591 29.8044 30.129 29.4043C30.299 29.0041 30.3858 28.5708 30.3839 28.1329V25.0378C30.3718 24.3212 30.1225 23.6312 29.6784 23.0855C29.2343 22.5399 28.623 22.1724 27.9489 22.0459ZM28.4418 28.2361C28.4416 28.3825 28.4117 28.5273 28.3539 28.6607C28.2961 28.7941 28.2118 28.9131 28.1066 29.0098C27.9968 29.1099 27.868 29.1846 27.7287 29.2291C27.5894 29.2735 27.4427 29.2867 27.2982 29.2678C23.6062 28.7723 20.1768 27.0047 17.5511 24.2437C14.9253 21.4827 13.2525 17.8855 12.7967 14.0194C12.781 13.8683 12.7947 13.7154 12.8371 13.57C12.8795 13.4246 12.9496 13.2897 13.0431 13.1734C13.1355 13.0633 13.2492 12.9751 13.3767 12.9147C13.5042 12.8542 13.6425 12.8228 13.7825 12.8226H16.74C16.9693 12.8173 17.1931 12.8957 17.373 13.0445C17.553 13.1933 17.6777 13.403 17.7258 13.6377C17.7653 13.9197 17.8146 14.1982 17.8737 14.4733C17.9876 15.0172 18.1392 15.5516 18.3272 16.0724L16.947 16.743C16.829 16.7997 16.7229 16.8802 16.6347 16.9799C16.5465 17.0796 16.478 17.1966 16.4331 17.3241C16.3882 17.4516 16.3678 17.5871 16.3731 17.7229C16.3784 17.8586 16.4093 17.9919 16.464 18.1152C17.8828 21.2956 20.3257 23.8522 23.3648 25.337C23.6048 25.4402 23.874 25.4402 24.114 25.337C24.237 25.291 24.3499 25.2199 24.4464 25.1278C24.5429 25.0357 24.6209 24.9244 24.6759 24.8005L25.2872 23.3562C25.7968 23.5469 26.3169 23.7054 26.8448 23.8307C27.1077 23.8926 27.3738 23.9442 27.6433 23.9855C27.8675 24.0358 28.0679 24.1664 28.2101 24.3547C28.3522 24.543 28.4272 24.7773 28.4221 25.0172L28.4418 28.2361Z" fill="white"/>
</svg>
